<?xml version="1.0" standalone="no"?>
<!DOCTYPE svg PUBLIC "-//W3C//DTD SVG 20010904//EN"
 "http://www.w3.org/TR/2001/REC-SVG-20010904/DTD/svg10.dtd">
<svg version="1.0" xmlns="http://www.w3.org/2000/svg"
 width="960.000000pt" height="960.000000pt" viewBox="0 0 960.000000 960.000000"
 preserveAspectRatio="xMidYMid meet">
<metadata>
Created by potrace 1.14, written by Peter Selinger 2001-2017
</metadata>
<g transform="translate(0.000000,960.000000) scale(0.100000,-0.100000)"
fill="#000000" stroke="none">
<path d="M3355 8994 c-16 -2 -70 -9 -120 -15 -260 -33 -643 -163 -893 -303
-268 -150 -477 -311 -611 -470 -83 -99 -91 -114 -91 -166 0 -54 18 -87 174
-318 125 -185 192 -291 608 -962 91 -146 190 -305 221 -354 32 -49 57 -100 57
-113 0 -17 -26 -50 -88 -111 -136 -136 -201 -249 -201 -352 -1 -45 27 -121 48
-135 8 -4 -7 -25 -42 -58 -158 -153 -343 -437 -420 -647 -90 -243 -118 -415
-124 -754 -4 -194 -1 -239 22 -404 51 -360 126 -671 290 -1197 94 -300 113
-372 119 -456 8 -100 -6 -225 -28 -247 -14 -14 -20 -12 -58 18 -245 195 -534
510 -716 782 -182 271 -357 614 -451 881 -42 120 -161 598 -161 650 -1 23 -7
69 -15 102 -8 33 -15 87 -15 120 0 33 -5 119 -12 192 -9 104 -9 149 1 215 7
46 15 121 17 168 10 237 78 576 176 885 64 201 125 344 240 563 105 201 205
356 345 536 l100 129 -64 101 c-35 56 -68 105 -72 109 -5 5 -47 -38 -94 -96
-239 -290 -475 -691 -612 -1040 -73 -187 -103 -284 -155 -505 -57 -235 -83
-394 -104 -637 -27 -300 -29 -429 -12 -537 9 -54 16 -125 16 -157 0 -33 9
-124 20 -203 68 -471 231 -942 467 -1341 347 -589 827 -1064 1458 -1444 308
-185 699 -341 1065 -422 395 -89 680 -113 1075 -92 343 19 497 46 875 157 204
60 310 102 580 226 309 143 534 280 735 448 50 41 137 114 195 161 246 201
584 598 753 883 68 115 225 438 293 603 60 146 142 437 183 653 11 58 29 190
41 295 19 168 21 231 18 555 l-4 365 -37 190 c-44 232 -110 497 -165 665 -78
239 -270 621 -433 865 -167 249 -311 413 -604 688 -153 143 -194 175 -404 314
-284 188 -433 274 -612 353 -370 163 -695 261 -1099 329 -144 24 -218 31 -417
36 -216 7 -243 6 -243 -8 0 -19 47 -213 54 -225 3 -5 87 -12 187 -16 100 -4
218 -13 263 -21 45 -7 131 -18 191 -25 232 -23 715 -166 956 -282 187 -90 416
-222 603 -347 116 -77 205 -148 328 -259 359 -326 616 -674 848 -1147 129
-262 196 -455 264 -760 77 -347 87 -423 93 -741 6 -313 0 -410 -43 -658 -47
-269 -114 -501 -222 -772 -72 -180 -115 -268 -192 -389 -31 -49 -77 -128 -103
-175 -59 -108 -77 -134 -221 -319 -114 -146 -332 -374 -525 -549 -77 -71 -84
-75 -96 -58 -18 24 -29 115 -22 180 29 260 59 386 187 797 132 422 184 662
226 1049 54 506 -71 1037 -341 1440 -249 371 -617 699 -1080 963 -325 184
-499 251 -757 292 -36 6 -38 8 -38 43 0 109 -48 168 -168 206 -83 26 -229 46
-337 46 -78 0 -108 21 -119 86 -7 37 -398 1760 -417 1835 -11 45 -47 81 -96
98 -37 13 -369 24 -438 15z m2308 -4005 c104 -35 177 -80 269 -167 112 -107
176 -194 237 -323 153 -321 171 -669 58 -1109 -58 -223 -158 -467 -390 -945
-244 -504 -294 -649 -307 -888 -7 -127 -10 -143 -39 -202 -33 -66 -57 -87
-124 -106 -37 -10 -88 11 -112 48 -32 48 -46 362 -25 548 32 277 90 419 315
780 187 298 250 435 291 628 18 88 18 211 -1 273 -8 27 -15 54 -15 61 0 6 29
34 65 63 84 65 146 149 184 250 26 67 31 93 31 169 0 148 -45 265 -143 368
-64 68 -124 105 -222 139 -68 23 -97 27 -195 28 -104 0 -120 -2 -173 -26 -158
-74 -274 -218 -322 -403 -43 -166 16 -343 161 -490 74 -75 141 -109 271 -136
53 -11 105 -25 115 -30 50 -27 62 -151 28 -283 -25 -97 -116 -276 -236 -461
-205 -316 -279 -486 -345 -794 -27 -125 -38 -473 -19 -628 12 -102 12 -105
-10 -128 -12 -13 -45 -33 -73 -45 -48 -21 -66 -22 -356 -24 -304 -1 -470 9
-641 40 -41 8 -115 21 -165 30 -141 24 -171 34 -214 70 -51 44 -65 87 -58 178
14 190 -59 430 -246 811 -113 229 -315 678 -372 825 -71 186 -136 464 -156
668 -22 225 23 511 109 695 122 261 306 443 515 509 49 16 81 19 152 15 112
-6 177 -30 268 -98 114 -86 199 -204 269 -376 145 -352 85 -784 -152 -1090
-89 -117 -73 -151 136 -283 172 -108 231 -160 320 -282 64 -87 100 -116 167
-132 16 -4 37 -4 47 -1 10 3 65 61 123 128 164 191 232 249 383 325 134 68
139 138 19 323 -97 150 -127 226 -166 422 -20 100 -21 120 -11 251 12 162 45
282 114 421 99 199 223 312 418 381 81 29 143 30 223 3z m18 -609 c49 -14 113
-61 149 -112 43 -59 74 -166 66 -226 -19 -129 -123 -249 -241 -278 l-30 -7 26
25 c14 13 34 37 44 52 10 15 31 34 48 42 29 15 30 17 24 73 -7 68 0 101 21
101 25 0 62 41 62 68 0 93 -104 222 -178 222 -11 0 -31 -9 -45 -20 -21 -17
-30 -18 -54 -9 -15 6 -59 19 -98 29 -70 18 -70 18 -40 30 73 30 162 34 246 10z
m-1001 -842 c75 -35 212 -155 208 -182 -2 -12 -36 -42 -90 -79 -55 -36 -124
-97 -182 -159 -65 -69 -100 -99 -111 -95 -8 4 -15 11 -15 17 0 33 55 108 151
206 123 126 131 146 77 187 -74 56 -217 107 -296 107 -28 0 -42 4 -36 9 16 16
47 20 144 17 78 -1 105 -6 150 -28z m-400 -288 l55 -51 -58 45 c-32 26 -75 55
-97 66 -21 11 -42 25 -45 31 -16 25 95 -44 145 -91z"/>
<path d="M3479 4353 c-15 -2 -51 -18 -80 -36 -99 -60 -128 -166 -77 -278 30
-66 66 -95 138 -110 71 -15 132 -5 184 30 82 57 109 134 81 234 -9 34 -28 74
-42 89 -42 44 -142 79 -204 71z"/>
</g>
</svg>
