<svg width="32" height="32" viewBox="0 0 32 32" fill="none" xmlns="http://www.w3.org/2000/svg">
<path d="M25.1429 4H6.85714C5.28171 4 4 5.28171 4 6.85714V25.1429C4 26.7183 5.28171 28 6.85714 28H25.1429C26.7183 28 28 26.7183 28 25.1429V6.85714C28 5.28171 26.7183 4 25.1429 4ZM22.8606 14.4703C22.7295 14.483 22.598 14.4897 22.4663 14.4903C21.7554 14.4904 21.0556 14.3135 20.4302 13.9755C19.8048 13.6375 19.2734 13.149 18.884 12.5543V19.1469C18.884 20.1106 18.5982 21.0526 18.0628 21.8539C17.5274 22.6552 16.7664 23.2797 15.8761 23.6485C14.9857 24.0173 14.006 24.1138 13.0608 23.9258C12.1157 23.7378 11.2474 23.2737 10.566 22.5923C9.88456 21.9108 9.42049 21.0426 9.23248 20.0975C9.04447 19.1523 9.14097 18.1726 9.50976 17.2822C9.87855 16.3919 10.5031 15.6309 11.3044 15.0955C12.1057 14.5601 13.0477 14.2743 14.0114 14.2743C14.1131 14.2743 14.2126 14.2834 14.3126 14.2897V16.6909C14.2126 16.6789 14.1143 16.6606 14.0114 16.6606C13.3519 16.6606 12.7193 16.9226 12.253 17.389C11.7866 17.8553 11.5246 18.4879 11.5246 19.1474C11.5246 19.807 11.7866 20.4395 12.253 20.9059C12.7193 21.3723 13.3519 21.6343 14.0114 21.6343C15.3851 21.6343 16.5983 20.552 16.5983 19.1783L16.6223 7.98171H18.9194C19.0244 8.97982 19.4768 9.90928 20.1977 10.6076C20.9185 11.3059 21.8619 11.7285 22.8629 11.8017V14.4703" fill="#6C4811"/>
</svg>
