<svg width="32" height="32" viewBox="0 0 32 32" fill="none" xmlns="http://www.w3.org/2000/svg">
	<path d="M24.4491 24.4496H20.8931V18.8805C20.8931 17.5525 20.8694 15.8429 19.0436 15.8429C17.1915 15.8429 16.9081 17.2899 16.9081 18.7838V24.4492H13.352V12.9969H16.7658V14.562H16.8136C17.1553 13.9778 17.649 13.4973 18.2421 13.1715C18.8352 12.8457 19.5056 12.6869 20.1819 12.712C23.7861 12.712 24.4506 15.0828 24.4506 18.167L24.4491 24.4496ZM9.33963 11.4314C8.93148 11.4315 8.53247 11.3106 8.19307 11.0839C7.85367 10.8572 7.58913 10.5349 7.43287 10.1578C7.27661 9.78077 7.23566 9.36584 7.31521 8.96551C7.39477 8.56517 7.59125 8.19743 7.8798 7.90876C8.16835 7.6201 8.53602 7.42348 8.93631 7.34378C9.3366 7.26408 9.75152 7.30488 10.1286 7.46101C10.5057 7.61713 10.8281 7.88158 11.0549 8.22091C11.2817 8.56025 11.4028 8.95922 11.4029 9.36738C11.4029 9.63839 11.3496 9.90675 11.2459 10.1571C11.1423 10.4075 10.9903 10.6351 10.7987 10.8267C10.6071 11.0184 10.3797 11.1705 10.1293 11.2742C9.87895 11.378 9.61062 11.4314 9.33963 11.4314ZM11.1176 24.4496H7.5579V12.9969H11.1176V24.4496ZM26.222 4.00164H5.77099C5.30681 3.9964 4.85952 4.17566 4.52744 4.50004C4.19536 4.82442 4.00567 5.26737 4 5.73156V26.2681C4.00547 26.7325 4.19506 27.1758 4.52712 27.5005C4.85919 27.8252 5.30658 28.0048 5.77099 27.9999H26.222C26.6873 28.0057 27.1359 27.8266 27.4693 27.5019C27.8027 27.1772 27.9936 26.7334 28 26.2681V5.73008C27.9934 5.26497 27.8024 4.82152 27.469 4.49714C27.1356 4.17277 26.6871 3.99402 26.222 4.00015" fill="#6C4811"/>
</svg>
