<svg width="32" height="32" viewBox="0 0 32 32" fill="none" xmlns="http://www.w3.org/2000/svg">
	<path fill-rule="evenodd" clip-rule="evenodd" d="M26.1577 24.6571C27.277 24.3574 28.1568 23.4778 28.4563 22.3584C28.9978 20.3316 29 16.1003 29 16.1003C29 16.1003 29 11.8689 28.4563 9.84208C28.1568 8.72273 27.277 7.84308 26.1577 7.5435C24.1309 6.99984 16 6.99984 16 6.99984C16 6.99984 7.86911 6.99984 5.84227 7.5435C4.72292 7.84308 3.84327 8.72273 3.54363 9.84208C3 11.8689 3 16.1003 3 16.1003C3 16.1003 3 20.3316 3.54363 22.3584C3.84327 23.4778 4.72292 24.3574 5.84227 24.6571C7.86911 25.2007 16 25.2007 16 25.2007C16 25.2007 24.1309 25.2007 26.1577 24.6571ZM20.1519 16.0999L13.3972 12.2004V19.9995L20.1519 16.0999Z" fill="#8C4111"/>
</svg>
