<svg width="32" height="32" viewBox="0 0 32 32" fill="none" xmlns="http://www.w3.org/2000/svg">
<path d="M16.0105 3.19995C8.93569 3.19995 3.19995 8.92627 3.19995 15.9894C3.19995 21.4105 6.57391 26.0421 11.3396 27.9052C11.2237 26.8947 11.1288 25.3368 11.3818 24.2315C11.6138 23.2315 12.879 17.8736 12.879 17.8736C12.879 17.8736 12.4994 17.1052 12.4994 15.9789C12.4994 14.2 13.5327 12.8736 14.819 12.8736C15.9156 12.8736 16.4428 13.6947 16.4428 14.6736C16.4428 15.7684 15.7469 17.4105 15.3778 18.9368C15.0721 20.2105 16.021 21.2526 17.2757 21.2526C19.5531 21.2526 21.3034 18.8526 21.3034 15.4C21.3034 12.3368 19.0998 10.2 15.9472 10.2C12.2991 10.2 10.1587 12.9263 10.1587 15.7473C10.1587 16.8421 10.5805 18.021 11.1077 18.6631C11.2131 18.7894 11.2237 18.9052 11.192 19.0315C11.0971 19.4315 10.8757 20.3052 10.8335 20.4842C10.7808 20.7157 10.6438 20.7684 10.4013 20.6526C8.79862 19.9052 7.79698 17.5789 7.79698 15.6947C7.79698 11.6631 10.7281 7.95785 16.2635 7.95785C20.7024 7.95785 24.1607 11.1157 24.1607 15.3473C24.1607 19.7578 21.3772 23.3052 17.5182 23.3052C16.2213 23.3052 14.9983 22.6315 14.5871 21.8315C14.5871 21.8315 13.9439 24.2736 13.7858 24.8736C13.5011 25.9894 12.7209 27.3789 12.1937 28.2315C13.3956 28.6 14.6609 28.8 15.9894 28.8C23.0642 28.8 28.7999 23.0736 28.7999 16.0105C28.821 8.92627 23.0852 3.19995 16.0105 3.19995Z" fill="#6C4811"/>
</svg>
