<svg width="32" height="32" viewBox="0 0 32 32" fill="none" xmlns="http://www.w3.org/2000/svg">
	<path d="M16 3C12.4694 3 12.0267 3.01497 10.6401 3.07823C9.25642 3.14134 8.3114 3.36112 7.48449 3.68246C6.62963 4.01468 5.90466 4.4592 5.18192 5.1819C4.45921 5.90461 4.0147 6.62964 3.68248 7.48451C3.36112 8.3114 3.14137 9.25642 3.07821 10.6401C3.01496 12.0267 3 12.4694 3 16C3 19.5306 3.01496 19.9733 3.07821 21.3599C3.14137 22.7436 3.36112 23.6886 3.68248 24.5155C4.0147 25.3704 4.45921 26.0953 5.18192 26.8181C5.90466 27.5408 6.62963 27.9853 7.48449 28.3175C8.3114 28.6389 9.25642 28.8587 10.6401 28.9218C12.0267 28.985 12.4694 29 16 29C19.5306 29 19.9733 28.985 21.3599 28.9218C22.7436 28.8587 23.6886 28.6389 24.5155 28.3175C25.3704 27.9853 26.0953 27.5408 26.8181 26.8181C27.5408 26.0953 27.9853 25.3704 28.3175 24.5155C28.6389 23.6886 28.8587 22.7436 28.9218 21.3599C28.985 19.9733 29 19.5306 29 16C29 12.4694 28.985 12.0267 28.9218 10.6401C28.8587 9.25642 28.6389 8.3114 28.3175 7.48451C27.9853 6.62964 27.5408 5.90461 26.8181 5.1819C26.0953 4.4592 25.3704 4.01468 24.5155 3.68246C23.6886 3.36112 22.7436 3.14134 21.3599 3.07823C19.9733 3.01497 19.5306 3 16 3ZM16 5.34234C19.4711 5.34234 19.8823 5.3556 21.2531 5.41814C22.5206 5.47594 23.2089 5.68772 23.667 5.86575C24.2738 6.10158 24.7069 6.38329 25.1618 6.83817C25.6167 7.29311 25.8984 7.72617 26.1342 8.33297C26.3123 8.79106 26.5241 9.4794 26.5819 10.7469C26.6444 12.1177 26.6577 12.5289 26.6577 16C26.6577 19.4711 26.6444 19.8823 26.5819 21.2531C26.5241 22.5206 26.3123 23.2089 26.1342 23.667C25.8984 24.2738 25.6167 24.7069 25.1618 25.1618C24.7069 25.6167 24.2738 25.8984 23.667 26.1342C23.2089 26.3123 22.5206 26.5241 21.2531 26.5818C19.8825 26.6444 19.4714 26.6577 16 26.6577C12.5286 26.6577 12.1175 26.6444 10.7469 26.5818C9.4794 26.5241 8.79106 26.3123 8.33297 26.1342C7.72616 25.8984 7.29311 25.6167 6.83822 25.1618C6.38332 24.7069 6.10158 24.2738 5.86575 23.667C5.68772 23.2089 5.47597 22.5206 5.41813 21.2531C5.35558 19.8823 5.34234 19.4711 5.34234 16C5.34234 12.5289 5.35558 12.1177 5.41813 10.7469C5.47597 9.4794 5.68772 8.79106 5.86575 8.33297C6.10158 7.72617 6.3833 7.29311 6.8382 6.83822C7.29311 6.38329 7.72616 6.10158 8.33297 5.86575C8.79106 5.68772 9.4794 5.47594 10.7469 5.41814C12.1177 5.3556 12.5289 5.34234 16 5.34234Z" fill="#6C4811"/>
	<path d="M16 20.3333C13.6068 20.3333 11.6667 18.3932 11.6667 16C11.6667 13.6067 13.6068 11.6667 16 11.6667C18.3933 11.6667 20.3333 13.6067 20.3333 16C20.3333 18.3932 18.3933 20.3333 16 20.3333ZM16 9.32432C12.3131 9.32432 9.32434 12.3131 9.32434 16C9.32434 19.6869 12.3131 22.6757 16 22.6757C19.6869 22.6757 22.6757 19.6869 22.6757 16C22.6757 12.3131 19.6869 9.32432 16 9.32432Z" fill="#6C4811"/>
	<path d="M24.4995 9.06058C24.4995 9.92215 23.801 10.6206 22.9394 10.6206C22.0779 10.6206 21.3795 9.92215 21.3795 9.06058C21.3795 8.199 22.0779 7.50055 22.9394 7.50055C23.801 7.50055 24.4995 8.199 24.4995 9.06058Z" fill="#6C4811"/>
</svg>
