<svg width="32" height="32" viewBox="0 0 32 32" fill="none" xmlns="http://www.w3.org/2000/svg">
<path d="M11.362 26.1638C20.796 26.1638 25.956 18.3478 25.956 11.5698C25.956 11.3478 25.956 11.1268 25.941 10.9068C26.9448 10.1807 27.8114 9.28166 28.5 8.25178C27.5639 8.66658 26.5708 8.9386 25.554 9.05878C26.6247 8.41776 27.4261 7.40955 27.809 6.22178C26.8022 6.81923 25.7006 7.24029 24.552 7.46678C23.7787 6.64446 22.7559 6.09994 21.6419 5.91749C20.5279 5.73503 19.3848 5.92481 18.3895 6.45746C17.3943 6.9901 16.6023 7.83591 16.1362 8.86401C15.6701 9.89211 15.5558 11.0452 15.811 12.1448C13.7718 12.0425 11.7768 11.5126 9.95564 10.5894C8.13448 9.66613 6.52784 8.37022 5.24 6.78578C4.58409 7.91494 4.3832 9.25164 4.67823 10.5237C4.97326 11.7958 5.74202 12.9076 6.828 13.6328C6.01174 13.6086 5.21328 13.3884 4.5 12.9908C4.5 13.0118 4.5 13.0338 4.5 13.0558C4.50032 14.24 4.91026 15.3876 5.66028 16.3041C6.4103 17.2205 7.45423 17.8493 8.615 18.0838C7.85987 18.2897 7.06758 18.3198 6.299 18.1718C6.62676 19.1909 7.26486 20.0822 8.12407 20.7209C8.98328 21.3595 10.0206 21.7137 11.091 21.7338C9.27474 23.1612 7.03106 23.9361 4.721 23.9338C4.3129 23.933 3.9052 23.9083 3.5 23.8598C5.84564 25.365 8.57491 26.1635 11.362 26.1598" fill="#6C4811"/>
</svg>
