<svg width="24" height="24" viewBox="0 0 24 24" fill="none" xmlns="http://www.w3.org/2000/svg">
	<path d="M3 21.0001H7L20 8.00006C20.5304 7.46963 20.8284 6.7502 20.8284 6.00006C20.8284 5.24991 20.5304 4.53049 20 4.00006C19.4696 3.46962 18.7501 3.17163 18 3.17163C17.2499 3.17163 16.5304 3.46962 16 4.00006L3 17.0001V21.0001Z" stroke="#BB5715" stroke-width="2" stroke-linecap="round" stroke-linejoin="round"/>
	<path d="M14.5 5.5L18.5 9.5" stroke="#BB5715" stroke-width="2" stroke-linecap="round" stroke-linejoin="round"/>
	<path d="M12 8L7 3L3 7L8 12" stroke="#BB5715" stroke-width="2" stroke-linecap="round" stroke-linejoin="round"/>
	<path d="M7 8L5.5 9.5" stroke="#BB5715" stroke-width="2" stroke-linecap="round" stroke-linejoin="round"/>
	<path d="M16 12L21 17L17 21L12 16" stroke="#BB5715" stroke-width="2" stroke-linecap="round" stroke-linejoin="round"/>
	<path d="M16 17L14.5 18.5" stroke="#BB5715" stroke-width="2" stroke-linecap="round" stroke-linejoin="round"/>
</svg>
