<svg width="224" height="80" viewBox="0 0 224 80" fill="none" xmlns="http://www.w3.org/2000/svg">
<path d="M44.2892 53.0804C44.1007 53.2584 43.8782 53.3973 43.6349 53.4891C43.3915 53.5809 43.1321 53.6238 42.8718 53.6151C41.6902 53.8933 40.3759 52.8839 40.3501 51.4903C40.3244 50.0968 41.5253 48.8717 42.9272 48.9699C44.9811 48.901 45.6331 51.8208 44.2892 53.0804ZM70.9618 46.3794C69.8498 65.7984 52.7639 80.5953 33.4062 79.3753C-1.08778 77.1293 -12.2078 32.6761 16.5265 14.5741C16.0342 12.2362 15.719 11.3199 15.0902 8.64127C25.1407 1.75903 33.1051 1.39533 40.8685 2.57193C40.9368 3.72046 40.8372 5.37817 41.091 9.54988C58.9437 12.3344 72.0699 28.1484 70.9682 46.3794H70.9618ZM21.5749 29.2791C21.5749 29.2791 21.6419 30.0792 21.9306 31.8071C34.1806 28.1395 41.1155 29.0174 41.1155 29.0174L39.3657 8.07594L37.9367 8.64127C37.9367 8.64127 38.2253 15.4048 39.3812 26.395C32.1357 24.8687 21.5814 29.2752 21.5814 29.2752L21.5749 29.2791ZM19.8483 33.1075C19.7968 32.7119 19.003 26.7867 17.0741 17.2667C-0.617465 28.9817 -2.38275 54.6322 13.5744 68.5855C13.6041 64.9102 13.5873 61.3498 13.6285 57.64C13.7999 48.5526 13.7316 43.5412 18.6873 36.8453C18.0031 36.7419 17.3988 36.6105 17.0973 36.4548C16.2688 36.0298 15.7443 35.245 15.9518 34.3441C16.1592 33.4431 16.8795 32.9186 18.1771 33.1075C18.293 33.119 18.8909 33.1253 19.8547 33.1037L19.8483 33.1075ZM51.5269 52.8277C51.0926 48.4008 50.036 43.7837 46.9809 40.5244C43.2919 36.585 37.0592 35.4479 31.9773 37.3136C20.3598 41.8197 18.0779 56.0244 23.3248 66.2412C24.8633 62.9067 23.9832 60.7679 23.7113 57.3861C23.5155 55.089 23.969 52.3734 25.9018 50.851C27.4068 49.6909 29.194 49.9219 30.9503 50.1529C31.0611 48.7198 31.7518 48.2093 33.1408 48.6292C35.7965 43.0422 43.0625 41.7521 47.1124 46.6576C51.8619 52.2726 48.4215 62.1359 40.6568 62.2354C36.4227 62.3248 32.7968 58.6495 32.2646 54.5314C32.0386 54.6888 31.7656 54.7659 31.4897 54.7502C31.2139 54.7344 30.9516 54.6267 30.7454 54.4446C30.2107 54.0311 30.2171 53.3203 30.3511 52.7192C30.2625 52.6381 30.1527 52.5833 30.0341 52.561C28.8126 52.3058 27.5189 52.5891 26.6054 53.4709C25.7601 54.2736 25.6042 55.2268 25.6402 56.2669C25.9405 59.8401 27.4442 63.1274 25.7962 66.6828C25.4998 67.3068 25.1519 68.1133 24.6159 68.6378C26.3335 71.5308 28.4944 74.1737 30.8975 76.5601C37.2718 77.47 43.958 76.458 49.6933 73.7233C50.0328 72.8397 50.2958 71.929 50.4793 71.0013C51.7668 65.0324 52.1201 58.9029 51.5269 52.8277ZM36.1212 57.7294C40.2136 62.4804 46.7722 58.9634 46.9629 53.1991C47.2953 47.4398 41.082 43.3549 36.576 47.7231C33.9796 50.2295 33.7619 55.0023 36.1212 57.7294ZM66.5795 33.4035C62.7809 22.5078 52.751 14.0559 41.2624 12.1634C41.6709 17.8525 42.1554 24.4897 43.096 29.9848C44.0302 29.6772 45.5893 29.1412 46.1073 29.2612C47.0982 29.4883 46.5969 31.705 45.8767 32.4158C45.7478 32.5434 45.6099 32.671 45.4759 32.777C47.7321 34.3517 48.7797 35.8435 48.7797 35.8435C52.4005 40.9481 53.9918 47.2101 54.4892 53.3701C54.6 53.3943 58.3922 56.4469 60.1922 57.908C60.7966 58.3981 60.7721 59.1663 60.1149 59.5989C59.0764 60.2842 55.3989 63.2219 54.5047 63.8574C54.3513 66.3459 54.1722 68.8344 53.9364 71.3114C66.2136 63.3648 71.646 47.0251 66.5795 33.4035Z" fill="#68491D"/>
<path d="M88.0271 15.0519H97.6518V42.7157H112.938V50.7382H88.0271V15.0519ZM114.841 32.9006C114.841 22.1366 123.78 14.6425 134.147 14.6425C144.513 14.6425 153.452 22.1477 153.452 32.9006C153.452 43.6536 144.513 51.2196 134.147 51.2196C123.78 51.2196 114.827 43.6563 114.827 32.9006H114.841ZM143.615 32.9006C143.615 27.2821 140.176 22.9251 134.138 22.9251C128.101 22.9251 124.661 27.2821 124.661 32.9006C124.661 38.5191 128.101 42.926 134.138 42.926C140.176 42.926 143.601 38.5164 143.601 32.9006H143.615ZM186.616 50.7466H176.183L171.165 42.5581H167.57V50.7466H157.934V15.0602H171.592C181.269 15.0602 186.719 21.1463 186.719 29.0747C186.719 34.2202 184.444 38.3144 180.213 40.6244L186.616 50.7466ZM171.118 34.9478C175.455 34.9478 177.041 32.5327 177.041 29.0664C177.041 25.6002 175.455 23.1353 171.118 23.1353H167.561V34.9478H171.118ZM191.218 15.0519H205.126C215.495 15.0519 223.322 21.824 223.322 32.9006C223.322 43.9772 215.495 50.7466 205.126 50.7466H191.218V15.0519ZM204.07 42.6632C209.887 42.6632 213.483 38.8317 213.483 32.9006C213.483 26.9695 209.887 23.1353 204.07 23.1353H200.828V42.6632H204.07Z" fill="#68491D"/>
<path d="M89.7673 70.0059H94.5451V71.4423H87.9386V61.0889H89.7673V70.0059Z" fill="#68491D"/>
<path d="M104.127 66.8202H99.8042V70.0059H104.857V71.4423H97.9755V61.0889H104.806V62.5395H99.8042V65.3981H104.127V66.8202Z" fill="#68491D"/>
<path d="M114.265 69.0317H110.188L109.335 71.4423H107.434L111.41 61.0889H113.05L117.033 71.4423H115.125L114.265 69.0317ZM110.701 67.5811H113.751L112.226 63.2861L110.701 67.5811Z" fill="#68491D"/>
<path d="M126.998 62.5395H123.716V71.4423H121.902V62.5395H118.649V61.0889H126.998V62.5395Z" fill="#68491D"/>
<path d="M138.769 71.4423H136.948V66.8416H132.242V71.4423H130.413V61.0889H132.242V65.3981H136.948V61.0889H138.769V71.4423Z" fill="#68491D"/>
<path d="M149.117 66.8202H144.794V70.0059H149.847V71.4423H142.966V61.0889H149.796V62.5395H144.794V65.3981H149.117V66.8202Z" fill="#68491D"/>
<path d="M157.231 67.4531H155.193V71.4423H153.364V61.0889H157.065C158.279 61.0889 159.216 61.3567 159.877 61.8924C160.537 62.4281 160.867 63.2032 160.867 64.2177C160.867 64.9098 160.696 65.4905 160.354 65.9598C160.016 66.4244 159.544 66.7823 158.937 67.0336L161.301 71.3499V71.4423H159.342L157.231 67.4531ZM155.193 66.0096H157.072C157.689 66.0096 158.171 65.8579 158.518 65.5545C158.865 65.2464 159.038 64.8268 159.038 64.2959C159.038 63.7412 158.877 63.3122 158.554 63.0088C158.236 62.7054 157.759 62.549 157.123 62.5395H155.193V66.0096Z" fill="#68491D"/>
<path d="M178.375 68.0718C178.269 69.1763 177.854 70.0391 177.131 70.6601C176.408 71.2764 175.447 71.5845 174.247 71.5845C173.409 71.5845 172.669 71.3902 172.028 71.0014C171.392 70.608 170.901 70.051 170.554 69.3304C170.207 68.6098 170.026 67.7731 170.012 66.8202V65.8532C170.012 64.8766 170.187 64.0162 170.539 63.2719C170.891 62.5276 171.395 61.954 172.05 61.5511C172.71 61.1481 173.471 60.9467 174.334 60.9467C175.495 60.9467 176.43 61.2572 177.139 61.8782C177.847 62.4992 178.259 63.3762 178.375 64.5092H176.553C176.466 63.7649 176.245 63.2292 175.888 62.9021C175.536 62.5703 175.018 62.4044 174.334 62.4044C173.539 62.4044 172.927 62.6912 172.498 63.2648C172.074 63.8337 171.857 64.6704 171.848 65.7749V66.6922C171.848 67.811 172.05 68.6643 172.455 69.2522C172.864 69.84 173.462 70.1339 174.247 70.1339C174.965 70.1339 175.505 69.9751 175.866 69.6575C176.228 69.3399 176.457 68.8113 176.553 68.0718H178.375Z" fill="#68491D"/>
<path d="M185.91 67.4531H183.872V71.4423H182.043V61.0889H185.744C186.959 61.0889 187.896 61.3567 188.556 61.8924C189.216 62.4281 189.546 63.2032 189.546 64.2177C189.546 64.9098 189.375 65.4905 189.033 65.9598C188.696 66.4244 188.223 66.7823 187.616 67.0336L189.98 71.3499V71.4423H188.021L185.91 67.4531ZM183.872 66.0096H185.751C186.368 66.0096 186.85 65.8579 187.197 65.5545C187.544 65.2464 187.718 64.8268 187.718 64.2959C187.718 63.7412 187.556 63.3122 187.233 63.0088C186.915 62.7054 186.438 62.549 185.802 62.5395H183.872V66.0096Z" fill="#68491D"/>
<path d="M199.2 69.0317H195.123L194.27 71.4423H192.369L196.345 61.0889H197.986L201.968 71.4423H200.06L199.2 69.0317ZM195.637 67.5811H198.687L197.162 63.2861L195.637 67.5811Z" fill="#68491D"/>
<path d="M211.261 67.0549H207.025V71.4423H205.196V61.0889H211.882V62.5395H207.025V65.6185H211.261V67.0549Z" fill="#68491D"/>
<path d="M223.112 62.5395H219.83V71.4423H218.016V62.5395H214.763V61.0889H223.112V62.5395Z" fill="#68491D"/>
</svg>
