<svg width="88" height="46" viewBox="0 0 88 46" fill="none" xmlns="http://www.w3.org/2000/svg">
<path d="M5.0746 12.6555C5.74792 11.6254 6.59159 11.3512 7.76811 11.0316C19.1424 7.94126 24.3949 6.78997 24.3949 6.78997C24.3949 6.78997 33.3816 4.79037 39.0749 3.82086C40.7889 3.52897 44.0334 3.27551 46.9352 3.82086C49.8369 4.3662 53.1218 4.83975 57.232 5.69927C65.0556 7.33532 71.0989 8.49719 79.9682 10.365C82.8455 10.971 83.1172 11.3892 82.9679 13.1402C82.0497 23.9139 80.7935 39.2951 80.7641 40.6137C80.7274 42.2618 79.552 42.9356 77.6297 42.5163C76.185 42.2012 48.9554 34.2392 47.4372 33.6211C45.919 33.003 43.2744 33.0515 42.3806 33.3545C41.6656 33.5969 41.0215 33.8675 40.7889 33.9725C31.6716 36.8084 13.1259 42.5721 11.8819 42.9405C9.91073 43.5243 8.10241 42.9405 7.76811 41.0378C7.43381 39.1352 5.94383 22.7384 5.74793 20.8963C5.55203 19.0543 4.75536 13.1439 5.0746 12.6555Z" fill="#8E8E8E"/>
<path d="M64.3865 6.60228C62.1514 6.1054 59.6491 5.31842 57.2318 4.81292C54.5981 4.26216 52.3032 3.86987 50.2309 3.51562C49.0692 3.31703 47.9774 3.1304 46.935 2.9345C44.0332 2.38916 40.7887 2.64261 39.0747 2.9345C33.3814 3.90401 30.0712 4.4933 24.3949 5.90362C17.878 7.52278 16.966 7.93183 7.93779 10.8864C6.2978 11.332 6.78979 11.2633 7.93779 11.1487C7.93779 11.1487 8.52572 11.1487 8.98863 11.0341C17.0895 9.02833 18.2956 8.5966 24.3949 7.04978C30.1113 5.80773 33.3814 5.05017 39.0747 4.08066C40.7887 3.78877 44.0332 3.53532 46.935 4.08066C47.9773 4.27656 49.0691 4.46319 50.2309 4.66178C52.3032 5.01603 54.598 5.40832 57.2318 5.95908C60.826 6.71068 62.4267 7.26595 65.716 7.93183C69.0169 8.60005 72.4574 9.33499 76.3524 10.1477C78.8984 10.679 81.1679 10.3888 79.6856 10.1477C73.6933 8.81819 69.3851 7.71357 64.3865 6.60228Z" fill="#505050"/>
<path d="M16.4936 17.5765C17.0801 17.5765 34.9696 18.0009 41.2994 17.8797C41.1731 14.1691 40.9353 6.49327 40.9939 5.47468C41.0672 4.20145 40.228 4.1912 39.5681 3.50002C41.7799 2.80883 44.6148 2.91796 46.9121 3.26962C46.7818 7.8937 46.896 17.2127 46.896 18.2313C47.9469 18.3889 71.0908 17.1885 71.3963 17.1885C71.7018 17.1885 80.2189 18.3889 81.3798 18.6921C80.8869 24.9492 79.8939 37.7931 79.8645 39.1124C79.8279 40.7616 78.9725 41.1617 77.5306 40.8464C76.0887 40.5312 48.9122 32.5643 47.397 31.9459C45.8818 31.3275 43.2423 31.376 42.3503 31.6791C41.6367 31.9216 40.9939 32.1925 40.7617 32.2976C31.6622 35.1351 13.1527 40.9022 11.9112 41.2709C10.3593 41.7316 8.95406 41.6953 8.75855 40.5797C8.56304 39.4641 6.81563 21.0809 6.62012 19.2378C9.2229 18.7042 15.907 17.5765 16.4936 17.5765Z" fill="#505050"/>
<path d="M16.4936 19.414C17.0801 19.414 34.9696 19.8385 41.2994 19.7172C41.1731 16.0066 40.9353 8.33081 40.9939 7.31222C41.0672 6.03899 40.6712 4.63439 40.0113 3.9432C42.2231 3.25201 45.058 3.80433 47.3553 4.15598C47.225 8.78006 46.896 19.0503 46.896 20.0688C47.9469 20.2265 71.0908 19.026 71.3963 19.026C71.7018 19.026 80.2189 20.2265 81.3798 20.5296C80.8869 26.7867 79.8939 39.6306 79.8645 40.95C79.8279 42.5991 78.9725 42.9993 77.5306 42.684C76.0887 42.3687 48.9122 34.4019 47.397 33.7834C45.8818 33.165 43.2423 33.2135 42.3503 33.5167C41.6367 33.7592 40.9939 34.03 40.7617 34.1351C31.6622 36.9726 13.1527 42.7398 11.9112 43.1084C10.3593 43.5692 8.95406 43.5328 8.75855 42.4172C8.56304 41.3016 6.81563 22.9185 6.62012 21.0753C9.2229 20.5418 15.907 19.414 16.4936 19.414Z" fill="#C4C4C4"/>
<path d="M40.9512 6.16626C40.9512 6.16626 41.4036 9.42567 41.6088 11.522C42.1675 17.2299 42.2571 20.4627 42.056 26.1926C41.9556 29.0545 41.5591 33.512 41.5591 33.512L40.9512 6.16626Z" fill="#505050"/>
<path d="M47.2402 6.03546C47.2402 6.03546 46.7879 9.29489 46.5827 11.3912C46.0242 17.0991 45.9346 20.3319 46.1359 26.0619C46.2364 28.9238 46.6329 33.3812 46.6329 33.3812L47.2402 6.03546Z" fill="#505050"/>
</svg>
