<svg width="88" height="46" viewBox="0 0 88 46" fill="none" xmlns="http://www.w3.org/2000/svg">
<path d="M58.022 42.5773C57.5656 43.0793 56.516 46 52.5 46C51.6678 46 42.1669 38.9715 33.3329 32.7199C27.7606 28.7766 22.4306 25.1821 19.9158 23.5002C19.5051 23.2255 19.1294 23.1086 18.7749 22.4974C18.3726 21.8036 18.4098 20.4438 18.4098 20.4438L18.4098 6.66165L25.4834 2.96512V0.226951C30.0927 -0.366319 30.9141 0.226951 33.4698 1.73294C36.0254 3.23894 68.7465 21.9041 70.5263 22.9994C72.3061 24.0947 72.2605 25.0074 71.3478 26.0114C70.435 27.0154 58.4784 42.0753 58.022 42.5773Z" fill="#8E8E8E"/>
<path d="M23.3387 16.7472C23.3387 12.4574 23.3387 11.7273 22.3347 4.5624L25.9856 2.69131C30.8818 5.24559 61.5103 38.5259 58.6154 41.7102C58.1591 42.2122 58.3873 42.2578 57.9309 42.7598C57.1162 43.656 26.0666 19.1415 23.3387 16.7472Z" fill="#505050"/>
<path d="M17.0875 8.37013C16.647 8.81067 17.9686 20.2645 18.8496 22.4672C18.9965 17.1808 19.2021 6.608 18.8496 6.608C18.4091 6.608 17.528 7.9296 17.0875 8.37013Z" fill="#505050"/>
<path d="M25.4836 14.7392C25.9856 10.5864 25.6662 7.57437 25.4836 0.226951C30.0929 -0.366319 30.9143 0.226951 33.47 1.73294C36.0256 3.23894 68.7467 21.9041 70.5265 22.9994C72.3063 24.0947 72.2607 25.0074 71.348 26.0114C70.4352 27.0154 58.4786 42.0753 58.0222 42.5773C57.5658 43.0793 57.2464 42.0753 55.5122 40.8431C53.778 39.6109 31.8271 20.3069 25.4836 14.7392Z" fill="#C4C4C4"/>
</svg>
