<svg width="88" height="46" viewBox="0 0 88 46" fill="none" xmlns="http://www.w3.org/2000/svg">
<path d="M52.6503 40.8789C50.822 41.3359 49.8456 41.0451 47.2279 39.9232C40.746 37.1452 22.2559 26.7932 19.8875 25.4635C17.5191 24.1339 10.9333 19.6257 10.0192 18.8777C9.10507 18.1298 8.27406 17.4442 8.0663 16.8417C7.85855 16.2393 8.1494 15.5121 8.79344 15.2836C9.43748 15.0551 11.702 14.2448 12.8239 13.9124C13.9457 13.58 13.9665 13.4346 14.4236 12.749C14.8806 12.0634 30.0051 7.26429 31.7087 6.80724C33.4123 6.35018 35.6976 5.78924 36.674 6.0801C37.6505 6.37095 77.7677 21.8902 78.391 22.3888C79.0142 22.8874 77.9962 25.0688 77.3522 25.5259C76.7082 25.9829 54.4785 40.4218 52.6503 40.8789Z" fill="#8E8E8E"/>
<path d="M48.8899 38.739C50.4688 40.7446 50.261 40.6919 47.2278 39.9232C44.1946 39.1546 22.2558 26.7932 19.8874 25.4636C17.5191 24.134 10.9333 19.6257 10.0191 18.8778C9.10502 18.1299 8.274 17.4443 8.06625 16.8418C7.8585 16.2393 9.37593 16.6109 10.0191 16.8418C10.8294 17.1326 14.1133 18.4779 15.213 18.8778C16.3556 19.2933 22.0094 21.9599 22.7129 22.3888C23.5647 22.9082 29.984 25.9735 34.4718 28.5799C41.8837 32.8846 47.311 36.7335 48.8899 38.739Z" fill="#505050"/>
<path d="M49.5962 31.1975C46.8123 29.1232 41.2861 23.012 38.4398 21.2669C32.4278 17.5807 23.7724 16.7587 21.0301 15.8861C20.4628 15.7056 18.5163 15.1797 15.7947 14.4734C15.171 14.3115 13.9872 13.6216 14.4443 12.936C14.9013 12.2504 17.706 14.4941 19.4096 14.0371C21.1132 13.58 27.0341 14.7642 28.0106 15.0551C28.987 15.3459 35.9468 16.1146 53.7513 24.1547C54.4787 24.4832 59.4853 34.397 58.8413 34.854C58.3946 35.171 59.5892 34.4267 58.3011 36.246C54.6031 34.6878 50.6973 32.018 49.5962 31.1975Z" fill="#505050"/>
<path d="M50.3026 29.9095C47.5187 27.8352 42.6157 21.1215 39.7695 19.3763C33.7575 15.6901 24.8943 15.2836 21.9442 14.8265C21.3559 14.7354 18.5786 14.4734 15.857 13.767C15.2333 13.6051 13.9664 13.4346 14.4235 12.749C14.8806 12.0634 30.005 7.26429 31.7086 6.80724C33.4122 6.35018 35.6975 5.78924 36.6739 6.0801C37.6504 6.37095 77.7677 21.8902 78.3909 22.3888C79.0142 22.8874 76.9366 23.8015 76.2926 24.2586C75.8459 24.5756 65.4363 31.5878 58.4881 36.0085L50.3026 29.9095Z" fill="#C4C4C4"/>
</svg>
